<svg width="304" height="88" viewBox="0 0 304 88" fill="none" xmlns="http://www.w3.org/2000/svg">
<g opacity="0.5">
<path d="M106.043 9.0957H110.866V10.0098H109.014V16.0859H110.866V17H106.043V16.0859H107.895V10.0098H106.043V9.0957ZM116.959 17L113.913 10.3789C113.928 10.5469 113.944 10.7188 113.959 10.8945C113.971 11.043 113.982 11.2041 113.992 11.3779C114.001 11.5518 114.006 11.7148 114.006 11.8672V17H113.01V9.0957H114.311L117.405 15.7637C117.385 15.6074 117.368 15.4395 117.352 15.2598C117.336 15.1074 117.324 14.9355 117.314 14.7441C117.304 14.5527 117.299 14.3574 117.299 14.1582V9.0957H118.307V17H116.959ZM125.819 11.4629C125.819 11.791 125.761 12.1064 125.646 12.4092C125.531 12.7119 125.355 12.9805 125.119 13.2148C124.882 13.4492 124.586 13.6367 124.231 13.7773C123.875 13.918 123.458 13.9883 122.977 13.9883H121.331V17H120.211V9.0957H122.907C123.395 9.0957 123.821 9.15234 124.184 9.26562C124.547 9.37891 124.85 9.53906 125.092 9.74609C125.334 9.95312 125.516 10.2021 125.637 10.4932C125.758 10.7842 125.819 11.1074 125.819 11.4629ZM124.694 11.4805C124.694 10.9922 124.534 10.6221 124.213 10.3701C123.893 10.1182 123.413 9.99219 122.772 9.99219H121.331V13.1035H122.819C123.139 13.1035 123.417 13.0615 123.654 12.9775C123.89 12.8936 124.085 12.7793 124.24 12.6348C124.394 12.4902 124.508 12.3184 124.583 12.1191C124.657 11.9199 124.694 11.707 124.694 11.4805ZM132.821 14.1289C132.821 14.6641 132.764 15.1211 132.651 15.5C132.538 15.8789 132.365 16.1885 132.132 16.4287C131.9 16.6689 131.607 16.8438 131.253 16.9531C130.9 17.0625 130.485 17.1172 130.008 17.1172C129.555 17.1172 129.159 17.0654 128.819 16.9619C128.479 16.8584 128.197 16.6924 127.972 16.4639C127.748 16.2354 127.579 15.9385 127.465 15.5732C127.352 15.208 127.295 14.7617 127.295 14.2344V9.0957H128.415V14.082C128.415 14.4609 128.439 14.7852 128.488 15.0547C128.537 15.3242 128.621 15.5449 128.74 15.7168C128.859 15.8887 129.021 16.0137 129.226 16.0918C129.431 16.1699 129.69 16.209 130.002 16.209C130.327 16.209 130.597 16.1699 130.814 16.0918C131.031 16.0137 131.206 15.8877 131.338 15.7139C131.471 15.54 131.566 15.3125 131.623 15.0312C131.679 14.75 131.708 14.4082 131.708 14.0059V9.0957H132.821V14.1289ZM137.819 10.0098V17H136.706V10.0098H134.11V9.0957H140.415V10.0098H137.819ZM140.836 18.2891V17.7266H148.09V18.2891H140.836ZM154.53 13.0449C154.53 13.8066 154.455 14.4463 154.304 14.9639C154.154 15.4814 153.949 15.9004 153.689 16.2207C153.429 16.541 153.124 16.7705 152.772 16.9092C152.42 17.0479 152.045 17.1172 151.647 17.1172C151.245 17.1172 150.87 17.0479 150.522 16.9092C150.174 16.7705 149.873 16.542 149.617 16.2236C149.361 15.9053 149.16 15.4863 149.013 14.9668C148.867 14.4473 148.793 13.8066 148.793 13.0449C148.793 12.248 148.867 11.5879 149.013 11.0645C149.16 10.541 149.362 10.124 149.62 9.81348C149.877 9.50293 150.182 9.28516 150.534 9.16016C150.885 9.03516 151.268 8.97266 151.682 8.97266C152.077 8.97266 152.447 9.03516 152.792 9.16016C153.138 9.28516 153.44 9.50293 153.698 9.81348C153.956 10.124 154.159 10.541 154.307 11.0645C154.456 11.5879 154.53 12.248 154.53 13.0449ZM153.458 13.0449C153.458 12.4238 153.418 11.9062 153.34 11.4922C153.262 11.0781 153.147 10.748 152.995 10.502C152.842 10.2559 152.656 10.082 152.435 9.98047C152.214 9.87891 151.963 9.82812 151.682 9.82812C151.385 9.82812 151.124 9.87988 150.897 9.9834C150.67 10.0869 150.48 10.2617 150.326 10.5078C150.171 10.7539 150.055 11.083 149.977 11.4951C149.899 11.9072 149.86 12.4238 149.86 13.0449C149.86 13.6465 149.9 14.1523 149.98 14.5625C150.06 14.9727 150.177 15.3027 150.332 15.5527C150.486 15.8027 150.674 15.9824 150.897 16.0918C151.12 16.2012 151.374 16.2559 151.659 16.2559C151.936 16.2559 152.186 16.2012 152.409 16.0918C152.631 15.9824 152.82 15.8027 152.974 15.5527C153.128 15.3027 153.248 14.9727 153.332 14.5625C153.416 14.1523 153.458 13.6465 153.458 13.0449ZM150.973 13.748V12.2891H152.35V13.748H150.973ZM156.188 17V16.1504H158.76V10.168C158.686 10.3242 158.555 10.4717 158.368 10.6104C158.18 10.749 157.964 10.8691 157.72 10.9707C157.476 11.0723 157.215 11.1533 156.938 11.2139C156.661 11.2744 156.393 11.3047 156.135 11.3047V10.4375C156.424 10.4375 156.708 10.4043 156.988 10.3379C157.267 10.2715 157.528 10.1787 157.77 10.0596C158.012 9.94043 158.227 9.79883 158.415 9.63477C158.602 9.4707 158.747 9.29102 158.848 9.0957H159.821V16.1504H161.889V17H156.188Z" fill="#9CA3AF"/>
<rect x="178.47" y="13.5" width="48" height="1" fill="white"/>
<path d="M247.03 21V9.4H242.95V7H253.75V9.4H249.67V21H247.03ZM255.39 21V11.08H257.91V21H255.39ZM256.65 9.92C256.196 9.92 255.813 9.77333 255.5 9.48C255.186 9.18667 255.03 8.8 255.03 8.32C255.03 7.84 255.186 7.45333 255.5 7.16C255.813 6.86667 256.196 6.72 256.65 6.72C257.116 6.72 257.503 6.86667 257.81 7.16C258.116 7.45333 258.27 7.84 258.27 8.32C258.27 8.8 258.116 9.18667 257.81 9.48C257.503 9.77333 257.116 9.92 256.65 9.92ZM260.71 21V7H263.23V14.74H263.59L266.87 11.08H270.15L265.57 15.88L270.31 21H267.07L263.59 17.06H263.23V21H260.71ZM275.15 21V9.4H271.07V7H281.87V9.4H277.79V21H275.15ZM286.59 21.28C285.603 21.28 284.716 21.08 283.93 20.68C283.143 20.28 282.523 19.7 282.07 18.94C281.616 18.18 281.39 17.2667 281.39 16.2V15.88C281.39 14.8133 281.616 13.9 282.07 13.14C282.523 12.38 283.143 11.8 283.93 11.4C284.716 11 285.603 10.8 286.59 10.8C287.576 10.8 288.463 11 289.25 11.4C290.036 11.8 290.656 12.38 291.11 13.14C291.563 13.9 291.79 14.8133 291.79 15.88V16.2C291.79 17.2667 291.563 18.18 291.11 18.94C290.656 19.7 290.036 20.28 289.25 20.68C288.463 21.08 287.576 21.28 286.59 21.28ZM286.59 19.04C287.363 19.04 288.003 18.79 288.51 18.29C289.016 17.79 289.27 17.0733 289.27 16.14V15.94C289.27 15.0067 289.02 14.29 288.52 13.79C288.02 13.29 287.376 13.04 286.59 13.04C285.816 13.04 285.176 13.29 284.67 13.79C284.163 14.29 283.91 15.0067 283.91 15.94V16.14C283.91 17.0733 284.163 17.79 284.67 18.29C285.176 18.79 285.816 19.04 286.59 19.04ZM294.11 21V7H296.63V14.74H296.99L300.27 11.08H303.55L298.97 15.88L303.71 21H300.47L296.99 17.06H296.63V21H294.11Z" fill="white"/>
<path d="M43.4834 69.0957H48.3057V70.0098H46.4541V76.0859H48.3057V77H43.4834V76.0859H45.335V70.0098H43.4834V69.0957ZM54.3994 77L51.3525 70.3789C51.3682 70.5469 51.3838 70.7188 51.3994 70.8945C51.4111 71.043 51.4219 71.2041 51.4316 71.3779C51.4414 71.5518 51.4463 71.7148 51.4463 71.8672V77H50.4502V69.0957H51.751L54.8447 75.7637C54.8252 75.6074 54.8076 75.4395 54.792 75.2598C54.7764 75.1074 54.7637 74.9355 54.7539 74.7441C54.7441 74.5527 54.7393 74.3574 54.7393 74.1582V69.0957H55.7471V77H54.3994ZM63.2588 71.4629C63.2588 71.791 63.2012 72.1064 63.0859 72.4092C62.9707 72.7119 62.7949 72.9805 62.5586 73.2148C62.3223 73.4492 62.0264 73.6367 61.6709 73.7773C61.3154 73.918 60.8975 73.9883 60.417 73.9883H58.7705V77H57.6514V69.0957H60.3467C60.835 69.0957 61.2607 69.1523 61.624 69.2656C61.9873 69.3789 62.29 69.5391 62.5322 69.7461C62.7744 69.9531 62.9561 70.2021 63.0771 70.4932C63.1982 70.7842 63.2588 71.1074 63.2588 71.4629ZM62.1338 71.4805C62.1338 70.9922 61.9736 70.6221 61.6533 70.3701C61.333 70.1182 60.8525 69.9922 60.2119 69.9922H58.7705V73.1035H60.2588C60.5791 73.1035 60.8574 73.0615 61.0938 72.9775C61.3301 72.8936 61.5254 72.7793 61.6797 72.6348C61.834 72.4902 61.9482 72.3184 62.0225 72.1191C62.0967 71.9199 62.1338 71.707 62.1338 71.4805ZM70.2607 74.1289C70.2607 74.6641 70.2041 75.1211 70.0908 75.5C69.9775 75.8789 69.8047 76.1885 69.5723 76.4287C69.3398 76.6689 69.0469 76.8438 68.6934 76.9531C68.3398 77.0625 67.9248 77.1172 67.4482 77.1172C66.9951 77.1172 66.5986 77.0654 66.2588 76.9619C65.9189 76.8584 65.6367 76.6924 65.4121 76.4639C65.1875 76.2354 65.0186 75.9385 64.9053 75.5732C64.792 75.208 64.7354 74.7617 64.7354 74.2344V69.0957H65.8545V74.082C65.8545 74.4609 65.8789 74.7852 65.9277 75.0547C65.9766 75.3242 66.0605 75.5449 66.1797 75.7168C66.2988 75.8887 66.4609 76.0137 66.666 76.0918C66.8711 76.1699 67.1299 76.209 67.4424 76.209C67.7666 76.209 68.0371 76.1699 68.2539 76.0918C68.4707 76.0137 68.6455 75.8877 68.7783 75.7139C68.9111 75.54 69.0059 75.3125 69.0625 75.0312C69.1191 74.75 69.1475 74.4082 69.1475 74.0059V69.0957H70.2607V74.1289ZM75.2588 70.0098V77H74.1455V70.0098H71.5498V69.0957H77.8545V70.0098H75.2588ZM78.2764 78.2891V77.7266H85.5303V78.2891H78.2764ZM91.9697 73.0449C91.9697 73.8066 91.8945 74.4463 91.7441 74.9639C91.5938 75.4814 91.3887 75.9004 91.1289 76.2207C90.8691 76.541 90.5635 76.7705 90.2119 76.9092C89.8604 77.0479 89.4854 77.1172 89.0869 77.1172C88.6846 77.1172 88.3096 77.0479 87.9619 76.9092C87.6143 76.7705 87.3125 76.542 87.0566 76.2236C86.8008 75.9053 86.5996 75.4863 86.4531 74.9668C86.3066 74.4473 86.2334 73.8066 86.2334 73.0449C86.2334 72.248 86.3066 71.5879 86.4531 71.0645C86.5996 70.541 86.8018 70.124 87.0596 69.8135C87.3174 69.5029 87.6221 69.2852 87.9736 69.1602C88.3252 69.0352 88.708 68.9727 89.1221 68.9727C89.5166 68.9727 89.8867 69.0352 90.2324 69.1602C90.5781 69.2852 90.8799 69.5029 91.1377 69.8135C91.3955 70.124 91.5986 70.541 91.7471 71.0645C91.8955 71.5879 91.9697 72.248 91.9697 73.0449ZM90.8975 73.0449C90.8975 72.4238 90.8584 71.9062 90.7803 71.4922C90.7021 71.0781 90.5869 70.748 90.4346 70.502C90.2822 70.2559 90.0957 70.082 89.875 69.9805C89.6543 69.8789 89.4033 69.8281 89.1221 69.8281C88.8252 69.8281 88.5635 69.8799 88.3369 69.9834C88.1104 70.0869 87.9199 70.2617 87.7656 70.5078C87.6113 70.7539 87.4951 71.083 87.417 71.4951C87.3389 71.9072 87.2998 72.4238 87.2998 73.0449C87.2998 73.6465 87.3398 74.1523 87.4199 74.5625C87.5 74.9727 87.6172 75.3027 87.7715 75.5527C87.9258 75.8027 88.1143 75.9824 88.3369 76.0918C88.5596 76.2012 88.8135 76.2559 89.0986 76.2559C89.376 76.2559 89.626 76.2012 89.8486 76.0918C90.0713 75.9824 90.2598 75.8027 90.4141 75.5527C90.5684 75.3027 90.6875 74.9727 90.7715 74.5625C90.8555 74.1523 90.8975 73.6465 90.8975 73.0449ZM88.4131 73.748V72.2891H89.79V73.748H88.4131ZM93.5518 77V76.3145C93.7236 75.9355 93.9502 75.5859 94.2314 75.2656C94.5127 74.9453 94.8125 74.6436 95.1309 74.3604C95.4492 74.0771 95.7695 73.8066 96.0918 73.5488C96.4141 73.291 96.7051 73.0361 96.9648 72.7842C97.2246 72.5322 97.4365 72.2764 97.6006 72.0166C97.7646 71.7568 97.8467 71.4824 97.8467 71.1934C97.8467 70.959 97.8086 70.7568 97.7324 70.5869C97.6562 70.417 97.5488 70.2764 97.4102 70.165C97.2715 70.0537 97.1074 69.9717 96.918 69.9189C96.7285 69.8662 96.5186 69.8398 96.2881 69.8398C96.0771 69.8398 95.8809 69.8691 95.6992 69.9277C95.5176 69.9863 95.3584 70.0742 95.2217 70.1914C95.085 70.3086 94.9736 70.4541 94.8877 70.6279C94.8018 70.8018 94.7451 71.0039 94.7178 71.2344L93.6396 71.1348C93.6748 70.8379 93.7549 70.5586 93.8799 70.2969C94.0049 70.0352 94.1758 69.8057 94.3926 69.6084C94.6094 69.4111 94.876 69.2559 95.1924 69.1426C95.5088 69.0293 95.874 68.9727 96.2881 68.9727C96.6982 68.9727 97.0664 69.0195 97.3926 69.1133C97.7188 69.207 97.9961 69.3447 98.2246 69.5264C98.4531 69.708 98.6279 69.9336 98.749 70.2031C98.8701 70.4727 98.9307 70.7812 98.9307 71.1289C98.9307 71.4961 98.8467 71.8369 98.6787 72.1514C98.5107 72.4658 98.2949 72.7637 98.0312 73.0449C97.7676 73.3262 97.4756 73.5938 97.1553 73.8477C96.835 74.1016 96.5225 74.3535 96.2178 74.6035C95.9131 74.8535 95.6357 75.1045 95.3857 75.3564C95.1357 75.6084 94.9482 75.8711 94.8232 76.1445H99.0596V77H93.5518Z" fill="#9CA3AF"/>
<rect x="115.91" y="73.5" width="96" height="1" fill="white"/>
<path d="M228.27 81L231.95 67H236.55L240.23 81H237.51L236.75 77.92H231.75L230.99 81H228.27ZM232.37 75.48H236.13L234.43 68.66H234.07L232.37 75.48ZM241.99 81V71.08H244.47V72.16H244.83C245.003 71.8267 245.29 71.5367 245.69 71.29C246.09 71.0433 246.616 70.92 247.27 70.92C247.976 70.92 248.543 71.0567 248.97 71.33C249.396 71.6033 249.723 71.96 249.95 72.4H250.31C250.536 71.9733 250.856 71.62 251.27 71.34C251.683 71.06 252.27 70.92 253.03 70.92C253.643 70.92 254.2 71.05 254.7 71.31C255.2 71.57 255.6 71.9633 255.9 72.49C256.2 73.0167 256.35 73.68 256.35 74.48V81H253.83V74.66C253.83 74.1133 253.69 73.7033 253.41 73.43C253.13 73.1567 252.736 73.02 252.23 73.02C251.656 73.02 251.213 73.2033 250.9 73.57C250.586 73.9367 250.43 74.46 250.43 75.14V81H247.91V74.66C247.91 74.1133 247.77 73.7033 247.49 73.43C247.21 73.1567 246.816 73.02 246.31 73.02C245.736 73.02 245.293 73.2033 244.98 73.57C244.666 73.9367 244.51 74.46 244.51 75.14V81H241.99ZM262.15 81.28C261.443 81.28 260.81 81.1567 260.25 80.91C259.69 80.6633 259.246 80.3033 258.92 79.83C258.593 79.3567 258.43 78.78 258.43 78.1C258.43 77.42 258.593 76.85 258.92 76.39C259.246 75.93 259.7 75.5833 260.28 75.35C260.86 75.1167 261.523 75 262.27 75H264.99V74.44C264.99 73.9733 264.843 73.59 264.55 73.29C264.256 72.99 263.79 72.84 263.15 72.84C262.523 72.84 262.056 72.9833 261.75 73.27C261.443 73.5567 261.243 73.9267 261.15 74.38L258.83 73.6C258.99 73.0933 259.246 72.63 259.6 72.21C259.953 71.79 260.426 71.45 261.02 71.19C261.613 70.93 262.336 70.8 263.19 70.8C264.496 70.8 265.53 71.1267 266.29 71.78C267.05 72.4333 267.43 73.38 267.43 74.62V78.32C267.43 78.72 267.616 78.92 267.99 78.92H268.79V81H267.11C266.616 81 266.21 80.88 265.89 80.64C265.57 80.4 265.41 80.08 265.41 79.68V79.66H265.03C264.976 79.82 264.856 80.03 264.67 80.29C264.483 80.55 264.19 80.78 263.79 80.98C263.39 81.18 262.843 81.28 262.15 81.28ZM262.59 79.24C263.296 79.24 263.873 79.0433 264.32 78.65C264.766 78.2567 264.99 77.7333 264.99 77.08V76.88H262.45C261.983 76.88 261.616 76.98 261.35 77.18C261.083 77.38 260.95 77.66 260.95 78.02C260.95 78.38 261.09 78.6733 261.37 78.9C261.65 79.1267 262.056 79.24 262.59 79.24ZM270.27 81V78L275.71 73.48V73.16H270.47V71.08H278.47V74.08L273.03 78.6V78.92H278.63V81H270.27ZM285.55 81.28C284.563 81.28 283.676 81.08 282.89 80.68C282.103 80.28 281.483 79.7 281.03 78.94C280.576 78.18 280.35 77.2667 280.35 76.2V75.88C280.35 74.8133 280.576 73.9 281.03 73.14C281.483 72.38 282.103 71.8 282.89 71.4C283.676 71 284.563 70.8 285.55 70.8C286.536 70.8 287.423 71 288.21 71.4C288.996 71.8 289.616 72.38 290.07 73.14C290.523 73.9 290.75 74.8133 290.75 75.88V76.2C290.75 77.2667 290.523 78.18 290.07 78.94C289.616 79.7 288.996 80.28 288.21 80.68C287.423 81.08 286.536 81.28 285.55 81.28ZM285.55 79.04C286.323 79.04 286.963 78.79 287.47 78.29C287.976 77.79 288.23 77.0733 288.23 76.14V75.94C288.23 75.0067 287.98 74.29 287.48 73.79C286.98 73.29 286.336 73.04 285.55 73.04C284.776 73.04 284.136 73.29 283.63 73.79C283.123 74.29 282.87 75.0067 282.87 75.94V76.14C282.87 77.0733 283.123 77.79 283.63 78.29C284.136 78.79 284.776 79.04 285.55 79.04ZM293.07 81V71.08H295.55V72.38H295.91C296.07 72.0333 296.37 71.7033 296.81 71.39C297.25 71.0767 297.916 70.92 298.81 70.92C299.583 70.92 300.26 71.0967 300.84 71.45C301.42 71.8033 301.87 72.29 302.19 72.91C302.51 73.53 302.67 74.2533 302.67 75.08V81H300.15V75.28C300.15 74.5333 299.966 73.9733 299.6 73.6C299.233 73.2267 298.71 73.04 298.03 73.04C297.256 73.04 296.656 73.2967 296.23 73.81C295.803 74.3233 295.59 75.04 295.59 75.96V81H293.07Z" fill="white"/>
</g>
</svg>
