<svg width="304" height="88" viewBox="0 0 304 88" fill="none" xmlns="http://www.w3.org/2000/svg">
<g opacity="0.5">
<path d="M5.92 21.28C4.93333 21.28 4.06333 21.07 3.31 20.65C2.55667 20.23 1.97 19.6367 1.55 18.87C1.13 18.1033 0.92 17.2 0.92 16.16V15.92C0.92 14.88 1.12667 13.9767 1.54 13.21C1.95333 12.4433 2.53333 11.85 3.28 11.43C4.02667 11.01 4.89333 10.8 5.88 10.8C6.85333 10.8 7.7 11.0167 8.42 11.45C9.14 11.8833 9.7 12.4833 10.1 13.25C10.5 14.0167 10.7 14.9067 10.7 15.92V16.78H3.48C3.50667 17.46 3.76 18.0133 4.24 18.44C4.72 18.8667 5.30667 19.08 6 19.08C6.70667 19.08 7.22667 18.9267 7.56 18.62C7.89333 18.3133 8.14667 17.9733 8.32 17.6L10.38 18.68C10.1933 19.0267 9.92333 19.4033 9.57 19.81C9.21667 20.2167 8.74667 20.5633 8.16 20.85C7.57333 21.1367 6.82667 21.28 5.92 21.28ZM3.5 14.9H8.14C8.08667 14.3267 7.85667 13.8667 7.45 13.52C7.04333 13.1733 6.51333 13 5.86 13C5.18 13 4.64 13.1733 4.24 13.52C3.84 13.8667 3.59333 14.3267 3.5 14.9ZM12.46 21V18.68H14.3V9.32H12.46V7H19.66C20.5133 7 21.2567 7.14333 21.89 7.43C22.5233 7.71667 23.0167 8.12333 23.37 8.65C23.7233 9.17667 23.9 9.80667 23.9 10.54V10.74C23.9 11.38 23.78 11.9033 23.54 12.31C23.3 12.7167 23.0167 13.03 22.69 13.25C22.3633 13.47 22.0533 13.6267 21.76 13.72V14.08C22.0533 14.16 22.3733 14.31 22.72 14.53C23.0667 14.75 23.3633 15.0667 23.61 15.48C23.8567 15.8933 23.98 16.4333 23.98 17.1V17.3C23.98 18.0733 23.8 18.7367 23.44 19.29C23.08 19.8433 22.5833 20.2667 21.95 20.56C21.3167 20.8533 20.58 21 19.74 21H12.46ZM16.94 18.6H19.42C19.9933 18.6 20.4567 18.46 20.81 18.18C21.1633 17.9 21.34 17.5 21.34 16.98V16.78C21.34 16.26 21.1667 15.86 20.82 15.58C20.4733 15.3 20.0067 15.16 19.42 15.16H16.94V18.6ZM16.94 12.76H19.38C19.9267 12.76 20.3767 12.62 20.73 12.34C21.0833 12.06 21.26 11.6733 21.26 11.18V10.98C21.26 10.4733 21.0867 10.0833 20.74 9.81C20.3933 9.53667 19.94 9.4 19.38 9.4H16.94V12.76ZM29.3 21.28C28.5933 21.28 27.96 21.1567 27.4 20.91C26.84 20.6633 26.3967 20.3033 26.07 19.83C25.7433 19.3567 25.58 18.78 25.58 18.1C25.58 17.42 25.7433 16.85 26.07 16.39C26.3967 15.93 26.85 15.5833 27.43 15.35C28.01 15.1167 28.6733 15 29.42 15H32.14V14.44C32.14 13.9733 31.9933 13.59 31.7 13.29C31.4067 12.99 30.94 12.84 30.3 12.84C29.6733 12.84 29.2067 12.9833 28.9 13.27C28.5933 13.5567 28.3933 13.9267 28.3 14.38L25.98 13.6C26.14 13.0933 26.3967 12.63 26.75 12.21C27.1033 11.79 27.5767 11.45 28.17 11.19C28.7633 10.93 29.4867 10.8 30.34 10.8C31.6467 10.8 32.68 11.1267 33.44 11.78C34.2 12.4333 34.58 13.38 34.58 14.62V18.32C34.58 18.72 34.7667 18.92 35.14 18.92H35.94V21H34.26C33.7667 21 33.36 20.88 33.04 20.64C32.72 20.4 32.56 20.08 32.56 19.68V19.66H32.18C32.1267 19.82 32.0067 20.03 31.82 20.29C31.6333 20.55 31.34 20.78 30.94 20.98C30.54 21.18 29.9933 21.28 29.3 21.28ZM29.74 19.24C30.4467 19.24 31.0233 19.0433 31.47 18.65C31.9167 18.2567 32.14 17.7333 32.14 17.08V16.88H29.6C29.1333 16.88 28.7667 16.98 28.5 17.18C28.2333 17.38 28.1 17.66 28.1 18.02C28.1 18.38 28.24 18.6733 28.52 18.9C28.8 19.1267 29.2067 19.24 29.74 19.24ZM38.58 25V22.8H43.98C44.3533 22.8 44.54 22.6 44.54 22.2V19.7H44.18C44.0733 19.9267 43.9067 20.1533 43.68 20.38C43.4533 20.6067 43.1467 20.7933 42.76 20.94C42.3733 21.0867 41.88 21.16 41.28 21.16C40.5067 21.16 39.83 20.9833 39.25 20.63C38.67 20.2767 38.22 19.7867 37.9 19.16C37.58 18.5333 37.42 17.8133 37.42 17V11.08H39.94V16.8C39.94 17.5467 40.1233 18.1067 40.49 18.48C40.8567 18.8533 41.38 19.04 42.06 19.04C42.8333 19.04 43.4333 18.7833 43.86 18.27C44.2867 17.7567 44.5 17.04 44.5 16.12V11.08H47.02V22.76C47.02 23.44 46.82 23.9833 46.42 24.39C46.02 24.7967 45.4867 25 44.82 25H38.58Z" fill="white"/>
<rect x="64.4199" y="13.5" width="48" height="1" fill="white"/>
<path d="M135.018 13.0098C135.018 13.6855 134.949 14.2793 134.812 14.791C134.676 15.3027 134.479 15.7314 134.221 16.0771C133.963 16.4229 133.647 16.6826 133.274 16.8564C132.901 17.0303 132.48 17.1172 132.012 17.1172C131.516 17.1172 131.08 17.0254 130.705 16.8418C130.33 16.6582 130.018 16.3916 129.768 16.042C129.518 15.6924 129.33 15.2627 129.205 14.7529C129.08 14.2432 129.018 13.6621 129.018 13.0098C129.018 12.334 129.084 11.7441 129.217 11.2402C129.35 10.7363 129.543 10.3164 129.797 9.98047C130.051 9.64453 130.364 9.39258 130.737 9.22461C131.11 9.05664 131.539 8.97266 132.023 8.97266C132.988 8.97266 133.729 9.31152 134.244 9.98926C134.76 10.667 135.018 11.6738 135.018 13.0098ZM133.84 13.0098C133.84 11.9551 133.686 11.1709 133.377 10.6572C133.068 10.1436 132.617 9.88672 132.023 9.88672C131.414 9.88672 130.957 10.1436 130.652 10.6572C130.348 11.1709 130.195 11.9551 130.195 13.0098C130.195 14.0645 130.35 14.8613 130.658 15.4004C130.967 15.9395 131.42 16.209 132.018 16.209C132.654 16.209 133.117 15.9355 133.406 15.3887C133.695 14.8418 133.84 14.0488 133.84 13.0098ZM141.979 14.1289C141.979 14.6641 141.922 15.1211 141.809 15.5C141.695 15.8789 141.522 16.1885 141.29 16.4287C141.058 16.6689 140.765 16.8438 140.411 16.9531C140.058 17.0625 139.643 17.1172 139.166 17.1172C138.713 17.1172 138.316 17.0654 137.977 16.9619C137.637 16.8584 137.354 16.6924 137.13 16.4639C136.905 16.2354 136.736 15.9385 136.623 15.5732C136.51 15.208 136.453 14.7617 136.453 14.2344V9.0957H137.572V14.082C137.572 14.4609 137.597 14.7852 137.646 15.0547C137.694 15.3242 137.778 15.5449 137.897 15.7168C138.017 15.8887 138.179 16.0137 138.384 16.0918C138.589 16.1699 138.848 16.209 139.16 16.209C139.484 16.209 139.755 16.1699 139.972 16.0918C140.188 16.0137 140.363 15.8877 140.496 15.7139C140.629 15.54 140.724 15.3125 140.78 15.0312C140.837 14.75 140.865 14.4082 140.865 14.0059V9.0957H141.979V14.1289ZM146.977 10.0098V17H145.863V10.0098H143.268V9.0957H149.572V10.0098H146.977ZM156.58 11.4629C156.58 11.791 156.522 12.1064 156.407 12.4092C156.292 12.7119 156.116 12.9805 155.88 13.2148C155.644 13.4492 155.348 13.6367 154.992 13.7773C154.637 13.918 154.219 13.9883 153.738 13.9883H152.092V17H150.973V9.0957H153.668C154.156 9.0957 154.582 9.15234 154.945 9.26562C155.309 9.37891 155.611 9.53906 155.854 9.74609C156.096 9.95312 156.277 10.2021 156.398 10.4932C156.52 10.7842 156.58 11.1074 156.58 11.4629ZM155.455 11.4805C155.455 10.9922 155.295 10.6221 154.975 10.3701C154.654 10.1182 154.174 9.99219 153.533 9.99219H152.092V13.1035H153.58C153.9 13.1035 154.179 13.0615 154.415 12.9775C154.651 12.8936 154.847 12.7793 155.001 12.6348C155.155 12.4902 155.27 12.3184 155.344 12.1191C155.418 11.9199 155.455 11.707 155.455 11.4805ZM163.582 14.1289C163.582 14.6641 163.525 15.1211 163.412 15.5C163.299 15.8789 163.126 16.1885 162.894 16.4287C162.661 16.6689 162.368 16.8438 162.015 16.9531C161.661 17.0625 161.246 17.1172 160.77 17.1172C160.316 17.1172 159.92 17.0654 159.58 16.9619C159.24 16.8584 158.958 16.6924 158.733 16.4639C158.509 16.2354 158.34 15.9385 158.227 15.5732C158.113 15.208 158.057 14.7617 158.057 14.2344V9.0957H159.176V14.082C159.176 14.4609 159.2 14.7852 159.249 15.0547C159.298 15.3242 159.382 15.5449 159.501 15.7168C159.62 15.8887 159.782 16.0137 159.987 16.0918C160.192 16.1699 160.451 16.209 160.764 16.209C161.088 16.209 161.358 16.1699 161.575 16.0918C161.792 16.0137 161.967 15.8877 162.1 15.7139C162.232 15.54 162.327 15.3125 162.384 15.0312C162.44 14.75 162.469 14.4082 162.469 14.0059V9.0957H163.582V14.1289ZM168.58 10.0098V17H167.467V10.0098H164.871V9.0957H171.176V10.0098H168.58ZM171.598 18.2891V17.7266H178.852V18.2891H171.598ZM185.291 13.0449C185.291 13.8066 185.216 14.4463 185.065 14.9639C184.915 15.4814 184.71 15.9004 184.45 16.2207C184.19 16.541 183.885 16.7705 183.533 16.9092C183.182 17.0479 182.807 17.1172 182.408 17.1172C182.006 17.1172 181.631 17.0479 181.283 16.9092C180.936 16.7705 180.634 16.542 180.378 16.2236C180.122 15.9053 179.921 15.4863 179.774 14.9668C179.628 14.4473 179.555 13.8066 179.555 13.0449C179.555 12.248 179.628 11.5879 179.774 11.0645C179.921 10.541 180.123 10.124 180.381 9.81348C180.639 9.50293 180.943 9.28516 181.295 9.16016C181.646 9.03516 182.029 8.97266 182.443 8.97266C182.838 8.97266 183.208 9.03516 183.554 9.16016C183.899 9.28516 184.201 9.50293 184.459 9.81348C184.717 10.124 184.92 10.541 185.068 11.0645C185.217 11.5879 185.291 12.248 185.291 13.0449ZM184.219 13.0449C184.219 12.4238 184.18 11.9062 184.102 11.4922C184.023 11.0781 183.908 10.748 183.756 10.502C183.604 10.2559 183.417 10.082 183.196 9.98047C182.976 9.87891 182.725 9.82812 182.443 9.82812C182.146 9.82812 181.885 9.87988 181.658 9.9834C181.432 10.0869 181.241 10.2617 181.087 10.5078C180.933 10.7539 180.816 11.083 180.738 11.4951C180.66 11.9072 180.621 12.4238 180.621 13.0449C180.621 13.6465 180.661 14.1523 180.741 14.5625C180.821 14.9727 180.938 15.3027 181.093 15.5527C181.247 15.8027 181.436 15.9824 181.658 16.0918C181.881 16.2012 182.135 16.2559 182.42 16.2559C182.697 16.2559 182.947 16.2012 183.17 16.0918C183.393 15.9824 183.581 15.8027 183.735 15.5527C183.89 15.3027 184.009 14.9727 184.093 14.5625C184.177 14.1523 184.219 13.6465 184.219 13.0449ZM181.734 13.748V12.2891H183.111V13.748H181.734ZM186.949 17V16.1504H189.521V10.168C189.447 10.3242 189.316 10.4717 189.129 10.6104C188.941 10.749 188.726 10.8691 188.481 10.9707C188.237 11.0723 187.977 11.1533 187.699 11.2139C187.422 11.2744 187.154 11.3047 186.896 11.3047V10.4375C187.186 10.4375 187.47 10.4043 187.749 10.3379C188.028 10.2715 188.289 10.1787 188.531 10.0596C188.773 9.94043 188.988 9.79883 189.176 9.63477C189.363 9.4707 189.508 9.29102 189.609 9.0957H190.582V16.1504H192.65V17H186.949Z" fill="#9CA3AF"/>
<path d="M6.18 81.28C5.1 81.28 4.14667 81.0867 3.32 80.7C2.49333 80.3133 1.84667 79.76 1.38 79.04C0.913333 78.32 0.68 77.4533 0.68 76.44V75.88H3.28V76.44C3.28 77.28 3.54 77.91 4.06 78.33C4.58 78.75 5.28667 78.96 6.18 78.96C7.08667 78.96 7.76333 78.78 8.21 78.42C8.65667 78.06 8.88 77.6 8.88 77.04C8.88 76.6533 8.77 76.34 8.55 76.1C8.33 75.86 8.01 75.6633 7.59 75.51C7.17 75.3567 6.66 75.2133 6.06 75.08L5.6 74.98C4.64 74.7667 3.81667 74.4967 3.13 74.17C2.44333 73.8433 1.91667 73.4133 1.55 72.88C1.18333 72.3467 1 71.6533 1 70.8C1 69.9467 1.20333 69.2167 1.61 68.61C2.01667 68.0033 2.59 67.5367 3.33 67.21C4.07 66.8833 4.94 66.72 5.94 66.72C6.94 66.72 7.83 66.89 8.61 67.23C9.39 67.57 10.0033 68.0767 10.45 68.75C10.8967 69.4233 11.12 70.2667 11.12 71.28V71.88H8.52V71.28C8.52 70.7467 8.41667 70.3167 8.21 69.99C8.00333 69.6633 7.70667 69.4233 7.32 69.27C6.93333 69.1167 6.47333 69.04 5.94 69.04C5.14 69.04 4.55 69.19 4.17 69.49C3.79 69.79 3.6 70.2 3.6 70.72C3.6 71.0667 3.69 71.36 3.87 71.6C4.05 71.84 4.32 72.04 4.68 72.2C5.04 72.36 5.5 72.5 6.06 72.62L6.52 72.72C7.52 72.9333 8.39 73.2067 9.13 73.54C9.87 73.8733 10.4467 74.3133 10.86 74.86C11.2733 75.4067 11.48 76.1067 11.48 76.96C11.48 77.8133 11.2633 78.5633 10.83 79.21C10.3967 79.8567 9.78333 80.3633 8.99 80.73C8.19667 81.0967 7.26 81.28 6.18 81.28ZM13.52 81V67H16.04V72.3H16.4C16.5067 72.0867 16.6733 71.8733 16.9 71.66C17.1267 71.4467 17.43 71.27 17.81 71.13C18.19 70.99 18.6733 70.92 19.26 70.92C20.0333 70.92 20.71 71.0967 21.29 71.45C21.87 71.8033 22.32 72.29 22.64 72.91C22.96 73.53 23.12 74.2533 23.12 75.08V81H20.6V75.28C20.6 74.5333 20.4167 73.9733 20.05 73.6C19.6833 73.2267 19.16 73.04 18.48 73.04C17.7067 73.04 17.1067 73.2967 16.68 73.81C16.2533 74.3233 16.04 75.04 16.04 75.96V81H13.52ZM30.56 81.28C29.5733 81.28 28.6867 81.08 27.9 80.68C27.1133 80.28 26.4933 79.7 26.04 78.94C25.5867 78.18 25.36 77.2667 25.36 76.2V75.88C25.36 74.8133 25.5867 73.9 26.04 73.14C26.4933 72.38 27.1133 71.8 27.9 71.4C28.6867 71 29.5733 70.8 30.56 70.8C31.5467 70.8 32.4333 71 33.22 71.4C34.0067 71.8 34.6267 72.38 35.08 73.14C35.5333 73.9 35.76 74.8133 35.76 75.88V76.2C35.76 77.2667 35.5333 78.18 35.08 78.94C34.6267 79.7 34.0067 80.28 33.22 80.68C32.4333 81.08 31.5467 81.28 30.56 81.28ZM30.56 79.04C31.3333 79.04 31.9733 78.79 32.48 78.29C32.9867 77.79 33.24 77.0733 33.24 76.14V75.94C33.24 75.0067 32.99 74.29 32.49 73.79C31.99 73.29 31.3467 73.04 30.56 73.04C29.7867 73.04 29.1467 73.29 28.64 73.79C28.1333 74.29 27.88 75.0067 27.88 75.94V76.14C27.88 77.0733 28.1333 77.79 28.64 78.29C29.1467 78.79 29.7867 79.04 30.56 79.04ZM38.08 85V71.08H40.56V72.28H40.92C41.1467 71.8933 41.5 71.55 41.98 71.25C42.46 70.95 43.1467 70.8 44.04 70.8C44.84 70.8 45.58 70.9967 46.26 71.39C46.94 71.7833 47.4867 72.36 47.9 73.12C48.3133 73.88 48.52 74.8 48.52 75.88V76.2C48.52 77.28 48.3133 78.2 47.9 78.96C47.4867 79.72 46.94 80.2967 46.26 80.69C45.58 81.0833 44.84 81.28 44.04 81.28C43.44 81.28 42.9367 81.21 42.53 81.07C42.1233 80.93 41.7967 80.75 41.55 80.53C41.3033 80.31 41.1067 80.0867 40.96 79.86H40.6V85H38.08ZM43.28 79.08C44.0667 79.08 44.7167 78.83 45.23 78.33C45.7433 77.83 46 77.1 46 76.14V75.94C46 74.98 45.74 74.25 45.22 73.75C44.7 73.25 44.0533 73 43.28 73C42.5067 73 41.86 73.25 41.34 73.75C40.82 74.25 40.56 74.98 40.56 75.94V76.14C40.56 77.1 40.82 77.83 41.34 78.33C41.86 78.83 42.5067 79.08 43.28 79.08ZM50.84 81V71.08H53.36V81H50.84ZM52.1 69.92C51.6467 69.92 51.2633 69.7733 50.95 69.48C50.6367 69.1867 50.48 68.8 50.48 68.32C50.48 67.84 50.6367 67.4533 50.95 67.16C51.2633 66.8667 51.6467 66.72 52.1 66.72C52.5667 66.72 52.9533 66.8667 53.26 67.16C53.5667 67.4533 53.72 67.84 53.72 68.32C53.72 68.8 53.5667 69.1867 53.26 69.48C52.9533 69.7733 52.5667 69.92 52.1 69.92ZM57.8 81V73.16H55.28V71.08H57.8V69.24C57.8 68.56 58.0033 68.0167 58.41 67.61C58.8167 67.2033 59.3467 67 60 67H62.6V69.08H60.88C60.5067 69.08 60.32 69.28 60.32 69.68V71.08H62.92V73.16H60.32V81H57.8ZM65.96 85V82.8H71.36C71.7333 82.8 71.92 82.6 71.92 82.2V79.7H71.56C71.4533 79.9267 71.2867 80.1533 71.06 80.38C70.8333 80.6067 70.5267 80.7933 70.14 80.94C69.7533 81.0867 69.26 81.16 68.66 81.16C67.8867 81.16 67.21 80.9833 66.63 80.63C66.05 80.2767 65.6 79.7867 65.28 79.16C64.96 78.5333 64.8 77.8133 64.8 77V71.08H67.32V76.8C67.32 77.5467 67.5033 78.1067 67.87 78.48C68.2367 78.8533 68.76 79.04 69.44 79.04C70.2133 79.04 70.8133 78.7833 71.24 78.27C71.6667 77.7567 71.88 77.04 71.88 76.12V71.08H74.4V82.76C74.4 83.44 74.2 83.9833 73.8 84.39C73.4 84.7967 72.8667 85 72.2 85H65.96Z" fill="white"/>
<rect x="91.8101" y="73.5" width="96" height="1" fill="white"/>
<path d="M210.408 73.0098C210.408 73.6855 210.339 74.2793 210.203 74.791C210.066 75.3027 209.869 75.7314 209.611 76.0771C209.353 76.4229 209.038 76.6826 208.665 76.8564C208.292 77.0303 207.871 77.1172 207.402 77.1172C206.906 77.1172 206.47 77.0254 206.095 76.8418C205.72 76.6582 205.408 76.3916 205.158 76.042C204.908 75.6924 204.72 75.2627 204.595 74.7529C204.47 74.2432 204.408 73.6621 204.408 73.0098C204.408 72.334 204.474 71.7441 204.607 71.2402C204.74 70.7363 204.933 70.3164 205.187 69.9805C205.441 69.6445 205.754 69.3926 206.127 69.2246C206.5 69.0566 206.929 68.9727 207.414 68.9727C208.378 68.9727 209.119 69.3115 209.634 69.9893C210.15 70.667 210.408 71.6738 210.408 73.0098ZM209.23 73.0098C209.23 71.9551 209.076 71.1709 208.767 70.6572C208.458 70.1436 208.007 69.8867 207.414 69.8867C206.804 69.8867 206.347 70.1436 206.042 70.6572C205.738 71.1709 205.585 71.9551 205.585 73.0098C205.585 74.0645 205.74 74.8613 206.048 75.4004C206.357 75.9395 206.81 76.209 207.408 76.209C208.044 76.209 208.507 75.9355 208.796 75.3887C209.085 74.8418 209.23 74.0488 209.23 73.0098ZM217.369 74.1289C217.369 74.6641 217.312 75.1211 217.199 75.5C217.085 75.8789 216.913 76.1885 216.68 76.4287C216.448 76.6689 216.155 76.8438 215.801 76.9531C215.448 77.0625 215.033 77.1172 214.556 77.1172C214.103 77.1172 213.707 77.0654 213.367 76.9619C213.027 76.8584 212.745 76.6924 212.52 76.4639C212.295 76.2354 212.126 75.9385 212.013 75.5732C211.9 75.208 211.843 74.7617 211.843 74.2344V69.0957H212.962V74.082C212.962 74.4609 212.987 74.7852 213.036 75.0547C213.084 75.3242 213.168 75.5449 213.288 75.7168C213.407 75.8887 213.569 76.0137 213.774 76.0918C213.979 76.1699 214.238 76.209 214.55 76.209C214.875 76.209 215.145 76.1699 215.362 76.0918C215.579 76.0137 215.753 75.8877 215.886 75.7139C216.019 75.54 216.114 75.3125 216.17 75.0312C216.227 74.75 216.255 74.4082 216.255 74.0059V69.0957H217.369V74.1289ZM222.367 70.0098V77H221.253V70.0098H218.658V69.0957H224.962V70.0098H222.367ZM231.97 71.4629C231.97 71.791 231.913 72.1064 231.797 72.4092C231.682 72.7119 231.506 72.9805 231.27 73.2148C231.034 73.4492 230.738 73.6367 230.382 73.7773C230.027 73.918 229.609 73.9883 229.128 73.9883H227.482V77H226.363V69.0957H229.058C229.546 69.0957 229.972 69.1523 230.335 69.2656C230.699 69.3789 231.001 69.5391 231.244 69.7461C231.486 69.9531 231.667 70.2021 231.789 70.4932C231.91 70.7842 231.97 71.1074 231.97 71.4629ZM230.845 71.4805C230.845 70.9922 230.685 70.6221 230.365 70.3701C230.044 70.1182 229.564 69.9922 228.923 69.9922H227.482V73.1035H228.97C229.291 73.1035 229.569 73.0615 229.805 72.9775C230.042 72.8936 230.237 72.7793 230.391 72.6348C230.545 72.4902 230.66 72.3184 230.734 72.1191C230.808 71.9199 230.845 71.707 230.845 71.4805ZM238.972 74.1289C238.972 74.6641 238.916 75.1211 238.802 75.5C238.689 75.8789 238.516 76.1885 238.284 76.4287C238.051 76.6689 237.758 76.8438 237.405 76.9531C237.051 77.0625 236.636 77.1172 236.16 77.1172C235.707 77.1172 235.31 77.0654 234.97 76.9619C234.63 76.8584 234.348 76.6924 234.124 76.4639C233.899 76.2354 233.73 75.9385 233.617 75.5732C233.503 75.208 233.447 74.7617 233.447 74.2344V69.0957H234.566V74.082C234.566 74.4609 234.59 74.7852 234.639 75.0547C234.688 75.3242 234.772 75.5449 234.891 75.7168C235.01 75.8887 235.172 76.0137 235.377 76.0918C235.583 76.1699 235.841 76.209 236.154 76.209C236.478 76.209 236.749 76.1699 236.965 76.0918C237.182 76.0137 237.357 75.8877 237.49 75.7139C237.623 75.54 237.717 75.3125 237.774 75.0312C237.831 74.75 237.859 74.4082 237.859 74.0059V69.0957H238.972V74.1289ZM243.97 70.0098V77H242.857V70.0098H240.261V69.0957H246.566V70.0098H243.97ZM246.988 78.2891V77.7266H254.242V78.2891H246.988ZM260.681 73.0449C260.681 73.8066 260.606 74.4463 260.456 74.9639C260.305 75.4814 260.1 75.9004 259.84 76.2207C259.581 76.541 259.275 76.7705 258.923 76.9092C258.572 77.0479 258.197 77.1172 257.798 77.1172C257.396 77.1172 257.021 77.0479 256.673 76.9092C256.326 76.7705 256.024 76.542 255.768 76.2236C255.512 75.9053 255.311 75.4863 255.165 74.9668C255.018 74.4473 254.945 73.8066 254.945 73.0449C254.945 72.248 255.018 71.5879 255.165 71.0645C255.311 70.541 255.513 70.124 255.771 69.8135C256.029 69.5029 256.333 69.2852 256.685 69.1602C257.037 69.0352 257.419 68.9727 257.833 68.9727C258.228 68.9727 258.598 69.0352 258.944 69.1602C259.29 69.2852 259.591 69.5029 259.849 69.8135C260.107 70.124 260.31 70.541 260.458 71.0645C260.607 71.5879 260.681 72.248 260.681 73.0449ZM259.609 73.0449C259.609 72.4238 259.57 71.9062 259.492 71.4922C259.414 71.0781 259.298 70.748 259.146 70.502C258.994 70.2559 258.807 70.082 258.586 69.9805C258.366 69.8789 258.115 69.8281 257.833 69.8281C257.537 69.8281 257.275 69.8799 257.048 69.9834C256.822 70.0869 256.631 70.2617 256.477 70.5078C256.323 70.7539 256.207 71.083 256.128 71.4951C256.05 71.9072 256.011 72.4238 256.011 73.0449C256.011 73.6465 256.051 74.1523 256.131 74.5625C256.211 74.9727 256.329 75.3027 256.483 75.5527C256.637 75.8027 256.826 75.9824 257.048 76.0918C257.271 76.2012 257.525 76.2559 257.81 76.2559C258.087 76.2559 258.337 76.2012 258.56 76.0918C258.783 75.9824 258.971 75.8027 259.125 75.5527C259.28 75.3027 259.399 74.9727 259.483 74.5625C259.567 74.1523 259.609 73.6465 259.609 73.0449ZM257.125 73.748V72.2891H258.501V73.748H257.125ZM262.263 77V76.3145C262.435 75.9355 262.662 75.5859 262.943 75.2656C263.224 74.9453 263.524 74.6436 263.842 74.3604C264.161 74.0771 264.481 73.8066 264.803 73.5488C265.125 73.291 265.417 73.0361 265.676 72.7842C265.936 72.5322 266.148 72.2764 266.312 72.0166C266.476 71.7568 266.558 71.4824 266.558 71.1934C266.558 70.959 266.52 70.7568 266.444 70.5869C266.368 70.417 266.26 70.2764 266.122 70.165C265.983 70.0537 265.819 69.9717 265.629 69.9189C265.44 69.8662 265.23 69.8398 265 69.8398C264.789 69.8398 264.592 69.8691 264.411 69.9277C264.229 69.9863 264.07 70.0742 263.933 70.1914C263.796 70.3086 263.685 70.4541 263.599 70.6279C263.513 70.8018 263.457 71.0039 263.429 71.2344L262.351 71.1348C262.386 70.8379 262.466 70.5586 262.591 70.2969C262.716 70.0352 262.887 69.8057 263.104 69.6084C263.321 69.4111 263.587 69.2559 263.904 69.1426C264.22 69.0293 264.585 68.9727 265 68.9727C265.41 68.9727 265.778 69.0195 266.104 69.1133C266.43 69.207 266.708 69.3447 266.936 69.5264C267.165 69.708 267.339 69.9336 267.46 70.2031C267.582 70.4727 267.642 70.7812 267.642 71.1289C267.642 71.4961 267.558 71.8369 267.39 72.1514C267.222 72.4658 267.006 72.7637 266.743 73.0449C266.479 73.3262 266.187 73.5938 265.867 73.8477C265.546 74.1016 265.234 74.3535 264.929 74.6035C264.625 74.8535 264.347 75.1045 264.097 75.3564C263.847 75.6084 263.66 75.8711 263.535 76.1445H267.771V77H262.263Z" fill="#9CA3AF"/>
</g>
</svg>
